<svg width="400" height="300" viewBox="0 0 400 300" fill="none" xmlns="http://www.w3.org/2000/svg">
<rect width="400" height="300" fill="url(#paint0_radial_1_875)"/>
<rect x="194.25" y="16.25" width="11.5" height="0.5" stroke="#E5E5E5" stroke-width="0.5" stroke-dasharray="2 2"/>
<path opacity="0.25" d="M37.1132 142.643L40 139.756L42.8868 142.643L40 145.529L37.1132 142.643ZM199.148 82.289C199.343 82.0938 199.66 82.0938 199.855 82.289L203.037 85.471C203.232 85.6663 203.232 85.9828 203.037 86.1781C202.842 86.3734 202.525 86.3734 202.33 86.1781L199.502 83.3497L196.673 86.1781C196.478 86.3734 196.161 86.3734 195.966 86.1781C195.771 85.9828 195.771 85.6663 195.966 85.471L199.148 82.289ZM40 142.643C40 142.143 40.0005 142.143 40.0016 142.143C40.0028 142.143 40.0046 142.143 40.0069 142.143C40.0116 142.143 40.0188 142.143 40.0283 142.143C40.0474 142.143 40.076 142.142 40.1141 142.142C40.1903 142.142 40.3041 142.142 40.4545 142.141C40.7553 142.139 41.202 142.135 41.785 142.128C42.951 142.113 44.662 142.084 46.8402 142.026C51.1965 141.909 57.421 141.674 64.8908 141.206C79.8323 140.269 99.7479 138.396 119.658 134.651C139.577 130.905 159.451 125.292 174.334 116.895C189.219 108.495 199.002 97.3786 199.002 82.6426H199.502H200.002C200.002 97.9065 189.846 109.29 174.825 117.766C159.801 126.243 139.8 131.88 119.843 135.634C99.8783 139.389 79.9185 141.266 64.9534 142.204C57.47 142.673 51.2334 142.908 46.867 143.025C44.6838 143.084 42.968 143.113 41.7975 143.128C41.2123 143.135 40.7634 143.139 40.4606 143.141C40.3092 143.142 40.1943 143.142 40.1171 143.142C40.0785 143.142 40.0494 143.143 40.0298 143.143C40.02 143.143 40.0126 143.143 40.0077 143.143C40.0052 143.143 40.0033 143.143 40.002 143.143C40.0007 143.143 40 143.143 40 142.643Z" fill="#A855F7"/>
<path opacity="0.25" d="M37.1132 142.643L40 139.756L42.8868 142.643L40 145.529L37.1132 142.643ZM199.646 123.289C199.842 123.094 200.158 123.094 200.354 123.289L203.536 126.471C203.731 126.666 203.731 126.983 203.536 127.178C203.34 127.373 203.024 127.373 202.828 127.178L200 124.35L197.172 127.178C196.976 127.373 196.66 127.373 196.464 127.178C196.269 126.983 196.269 126.666 196.464 126.471L199.646 123.289ZM40 142.643C40 142.143 40.0006 142.143 40.0018 142.143C40.003 142.143 40.0048 142.143 40.0072 142.143C40.012 142.143 40.0193 142.143 40.0289 142.143C40.0482 142.143 40.0771 142.143 40.1155 142.143C40.1922 142.142 40.3068 142.142 40.458 142.142C40.7604 142.141 41.2093 142.14 41.7949 142.138C42.9661 142.133 44.6841 142.124 46.8708 142.105C51.2442 142.068 57.4923 141.994 64.9901 141.846C79.9864 141.549 99.9793 140.955 119.97 139.768C139.966 138.581 159.942 136.801 174.912 134.135C182.402 132.801 188.609 131.25 192.933 129.452C195.097 128.553 196.758 127.605 197.871 126.614C198.981 125.625 199.5 124.637 199.5 123.643H200H200.5C200.5 125.024 199.769 126.262 198.536 127.36C197.304 128.457 195.528 129.457 193.317 130.376C188.891 132.215 182.598 133.781 175.088 135.119C160.058 137.796 140.034 139.579 120.03 140.767C100.021 141.955 80.0136 142.549 65.0099 142.846C57.5077 142.994 51.2558 143.068 46.8792 143.105C44.6909 143.124 42.9714 143.133 41.7989 143.138C41.2126 143.14 40.763 143.141 40.4599 143.142C40.3084 143.142 40.1935 143.142 40.1164 143.143C40.0779 143.143 40.0488 143.143 40.0294 143.143C40.0196 143.143 40.0123 143.143 40.0074 143.143C40.005 143.143 40.0031 143.143 40.0019 143.143C40.0006 143.143 40 143.143 40 142.643Z" fill="#EC4899"/>
<path opacity="0.25" d="M197.113 123.643L200 126.529L202.887 123.643L200 120.756L197.113 123.643ZM360.354 123.996C360.549 123.801 360.549 123.484 360.354 123.289L357.172 120.107C356.976 119.912 356.66 119.912 356.464 120.107C356.269 120.302 356.269 120.619 356.464 120.814L359.293 123.643L356.464 126.471C356.269 126.666 356.269 126.983 356.464 127.178C356.66 127.373 356.976 127.373 357.172 127.178L360.354 123.996ZM360 123.643V123.143H200V123.643V124.143H360V123.643Z" fill="#A855F7"/>
<path opacity="0.25" d="M197.113 136.643L200 139.529L202.887 136.643L200 133.756L197.113 136.643ZM360.354 136.996C360.549 136.801 360.549 136.484 360.354 136.289L357.172 133.107C356.976 132.912 356.66 132.912 356.464 133.107C356.269 133.302 356.269 133.619 356.464 133.814L359.293 136.643L356.464 139.471C356.269 139.666 356.269 139.983 356.464 140.178C356.66 140.373 356.976 140.373 357.172 140.178L360.354 136.996ZM360 136.643V136.143H200V136.643V137.143H360V136.643Z" fill="#EC4899"/>
<path d="M37.1132 149.643L40 152.529L42.8868 149.643L40 146.756L37.1132 149.643ZM360.354 149.996C360.549 149.801 360.549 149.484 360.354 149.289L357.172 146.107C356.976 145.912 356.66 145.912 356.464 146.107C356.269 146.302 356.269 146.619 356.464 146.814L359.293 149.643L356.464 152.471C356.269 152.666 356.269 152.983 356.464 153.178C356.66 153.373 356.976 153.373 357.172 153.178L360.354 149.996ZM360 149.643L360 149.143L40 149.143L40 149.643L40 150.143L360 150.143L360 149.643Z" fill="#0EA5E9"/>
<path opacity="0.25" d="M197.113 162.643L200 165.529L202.887 162.643L200 159.756L197.113 162.643ZM360.354 162.996C360.549 162.801 360.549 162.484 360.354 162.289L357.172 159.107C356.976 158.912 356.66 158.912 356.464 159.107C356.269 159.302 356.269 159.619 356.464 159.814L359.293 162.643L356.464 165.471C356.269 165.666 356.269 165.983 356.464 166.178C356.66 166.373 356.976 166.373 357.172 166.178L360.354 162.996ZM360 162.643V162.143H200V162.643V163.143H360V162.643Z" fill="#22C55E"/>
<path opacity="0.25" d="M197.113 175.643L200 178.529L202.887 175.643L200 172.756L197.113 175.643ZM360.354 175.996C360.549 175.801 360.549 175.484 360.354 175.289L357.172 172.107C356.976 171.912 356.66 171.912 356.464 172.107C356.269 172.302 356.269 172.619 356.464 172.814L359.293 175.643L356.464 178.471C356.269 178.666 356.269 178.983 356.464 179.178C356.66 179.373 356.976 179.373 357.172 179.178L360.354 175.996ZM360 175.643V175.143H200V175.643V176.143H360V175.643Z" fill="#F59E0B"/>
<path opacity="0.25" d="M37.1132 156.643L40 159.529L42.8868 156.643L40 153.756L37.1132 156.643ZM199.646 175.996C199.842 176.191 200.158 176.191 200.354 175.996L203.536 172.814C203.731 172.619 203.731 172.302 203.536 172.107C203.34 171.912 203.024 171.912 202.828 172.107L200 174.935L197.172 172.107C196.976 171.912 196.66 171.912 196.464 172.107C196.269 172.302 196.269 172.619 196.464 172.814L199.646 175.996ZM40 156.643C40 157.143 40.0006 157.143 40.0018 157.143C40.003 157.143 40.0048 157.143 40.0072 157.143C40.012 157.143 40.0193 157.143 40.0289 157.143C40.0482 157.143 40.0771 157.143 40.1155 157.143C40.1922 157.143 40.3068 157.143 40.458 157.143C40.7604 157.144 41.2093 157.145 41.7949 157.147C42.9661 157.152 44.6841 157.161 46.8708 157.18C51.2442 157.217 57.4923 157.291 64.9901 157.439C79.9864 157.736 99.9793 158.33 119.97 159.517C139.966 160.704 159.942 162.484 174.912 165.15C182.402 166.485 188.609 168.036 192.933 169.833C195.097 170.732 196.758 171.681 197.871 172.671C198.981 173.66 199.5 174.649 199.5 175.643H200H200.5C200.5 174.262 199.769 173.023 198.536 171.925C197.304 170.828 195.528 169.828 193.317 168.909C188.891 167.07 182.598 165.504 175.088 164.166C160.058 161.489 140.034 159.706 120.03 158.518C100.021 157.33 80.0136 156.736 65.0099 156.44C57.5077 156.291 51.2558 156.217 46.8792 156.18C44.6909 156.161 42.9714 156.152 41.7989 156.147C41.2126 156.145 40.763 156.144 40.4599 156.143C40.3084 156.143 40.1935 156.143 40.1164 156.143C40.0779 156.143 40.0488 156.143 40.0294 156.143C40.0196 156.143 40.0123 156.143 40.0074 156.143C40.005 156.143 40.0031 156.143 40.0019 156.143C40.0006 156.143 40 156.143 40 156.643Z" fill="#22C55E"/>
<path opacity="0.25" d="M37.1132 156.643L40 159.529L42.8868 156.643L40 153.756L37.1132 156.643ZM199.148 216.996C199.343 217.191 199.66 217.191 199.855 216.996L203.037 213.814C203.232 213.619 203.232 213.302 203.037 213.107C202.842 212.912 202.525 212.912 202.33 213.107L199.502 215.935L196.673 213.107C196.478 212.912 196.161 212.912 195.966 213.107C195.771 213.302 195.771 213.619 195.966 213.814L199.148 216.996ZM40 156.643C40 157.143 40.0005 157.143 40.0016 157.143C40.0028 157.143 40.0046 157.143 40.0069 157.143C40.0116 157.143 40.0188 157.143 40.0283 157.143C40.0474 157.143 40.076 157.143 40.1141 157.143C40.1903 157.143 40.3041 157.143 40.4545 157.144C40.7553 157.146 41.202 157.15 41.785 157.157C42.951 157.172 44.662 157.201 46.8402 157.26C51.1965 157.377 57.421 157.611 64.8908 158.079C79.8323 159.016 99.7479 160.889 119.658 164.634C139.577 168.38 159.451 173.993 174.334 182.391C189.219 190.79 199.002 201.907 199.002 216.643H199.502H200.002C200.002 201.379 189.846 189.995 174.825 181.52C159.801 173.042 139.8 167.405 119.843 163.651C99.8783 159.896 79.9185 158.019 64.9534 157.081C57.47 156.612 51.2334 156.377 46.867 156.26C44.6838 156.201 42.968 156.172 41.7975 156.157C41.2123 156.15 40.7634 156.146 40.4606 156.144C40.3092 156.143 40.1943 156.143 40.1171 156.143C40.0785 156.143 40.0494 156.143 40.0298 156.143C40.02 156.143 40.0126 156.143 40.0077 156.143C40.0052 156.143 40.0033 156.143 40.002 156.143C40.0007 156.143 40 156.143 40 156.643Z" fill="#F59E0B"/>
<foreignObject x="173.5" y="74.5" width="44.002" height="150"><div xmlns="http://www.w3.org/1999/xhtml" style="backdrop-filter:blur(3px);clip-path:url(#bgblur_0_1_875_clip_path);height:100%;width:100%"></div></foreignObject><g data-figma-bg-blur-radius="6">
<rect x="179.75" y="80.75" width="31.5019" height="137.5" rx="8.25095" fill="white"/>
<rect x="179.75" y="80.75" width="31.5019" height="137.5" rx="8.25095" stroke="#E2E8F0" stroke-width="0.5"/>
<path d="M191.533 150.392C191.747 150.183 191.911 149.931 192.012 149.653C192.114 149.376 192.152 149.08 192.122 148.787L192.133 148.797C192.103 148.452 192.151 148.105 192.273 147.78C192.396 147.455 192.59 147.159 192.841 146.914C193.093 146.67 193.397 146.481 193.732 146.362C194.066 146.244 194.424 146.197 194.779 146.226L194.768 146.217C195.192 146.255 195.619 146.166 195.989 145.96C196.359 145.755 196.655 145.443 196.836 145.068C197.017 144.693 197.075 144.273 197.002 143.865C196.929 143.457 196.727 143.081 196.426 142.788C196.125 142.495 195.738 142.299 195.318 142.228C194.898 142.156 194.466 142.213 194.08 142.389C193.694 142.565 193.374 142.853 193.162 143.213C192.951 143.572 192.859 143.987 192.899 144.399L192.888 144.39C192.918 144.735 192.871 145.082 192.748 145.407C192.626 145.732 192.432 146.027 192.18 146.272C191.928 146.517 191.625 146.705 191.29 146.824C190.956 146.943 190.599 146.989 190.244 146.96L190.254 146.97C189.907 146.94 189.558 146.995 189.239 147.131C188.921 147.267 188.642 147.479 188.43 147.747C188.218 148.015 188.078 148.331 188.025 148.666C187.972 149 188.007 149.342 188.126 149.66C188.245 149.978 188.444 150.262 188.706 150.485C188.968 150.708 189.284 150.863 189.623 150.936C189.963 151.009 190.317 150.997 190.651 150.902C190.985 150.807 191.289 150.631 191.535 150.392H191.533Z" fill="#145BB7"/>
<path d="M195.191 151.786L195.202 151.796C194.847 151.766 194.49 151.813 194.155 151.932C193.821 152.051 193.517 152.239 193.265 152.484C193.014 152.729 192.82 153.024 192.697 153.349C192.575 153.674 192.527 154.021 192.557 154.366L192.546 154.356C192.586 154.769 192.494 155.184 192.283 155.544C192.071 155.904 191.751 156.191 191.365 156.368C190.979 156.544 190.547 156.6 190.127 156.529C189.707 156.458 189.32 156.262 189.018 155.969C188.717 155.676 188.515 155.3 188.442 154.892C188.369 154.483 188.427 154.063 188.608 153.688C188.79 153.313 189.086 153.001 189.456 152.796C189.826 152.59 190.253 152.501 190.677 152.539L190.667 152.529C191.022 152.559 191.379 152.512 191.713 152.393C192.048 152.274 192.351 152.086 192.603 151.841C192.855 151.596 193.049 151.301 193.171 150.976C193.294 150.651 193.341 150.304 193.312 149.959L193.322 149.969C193.292 149.675 193.329 149.379 193.431 149.102C193.533 148.824 193.697 148.572 193.911 148.364C194.126 148.156 194.385 147.996 194.671 147.897C194.956 147.799 195.261 147.763 195.562 147.792L195.552 147.782C195.907 147.811 196.264 147.764 196.599 147.646C196.933 147.527 197.237 147.338 197.489 147.093C197.741 146.849 197.935 146.553 198.057 146.228C198.179 145.903 198.227 145.556 198.197 145.211L198.207 145.221C198.167 144.809 198.259 144.394 198.471 144.034C198.682 143.674 199.003 143.386 199.388 143.21C199.774 143.034 200.207 142.977 200.627 143.049C201.047 143.12 201.434 143.315 201.735 143.609C202.037 143.902 202.238 144.278 202.311 144.686C202.385 145.095 202.327 145.515 202.145 145.89C201.964 146.265 201.668 146.577 201.298 146.782C200.927 146.988 200.501 147.077 200.076 147.038L200.087 147.048C199.732 147.019 199.375 147.066 199.041 147.185C198.706 147.303 198.402 147.492 198.151 147.737C197.899 147.981 197.705 148.277 197.583 148.602C197.46 148.927 197.413 149.274 197.443 149.619L197.432 149.609C197.462 149.902 197.425 150.199 197.323 150.476C197.221 150.753 197.057 151.006 196.842 151.214C196.628 151.422 196.368 151.581 196.083 151.68C195.797 151.779 195.493 151.815 195.191 151.786Z" fill="#2492EC"/>
<path d="M199.178 149.685C199.279 149.407 199.443 149.155 199.656 148.947H199.658C199.904 148.707 200.208 148.531 200.542 148.436C200.876 148.341 201.229 148.329 201.569 148.402C201.909 148.475 202.225 148.63 202.487 148.854C202.748 149.077 202.948 149.36 203.067 149.678C203.186 149.996 203.221 150.338 203.167 150.673C203.114 151.007 202.975 151.323 202.763 151.592C202.55 151.86 202.272 152.072 201.953 152.207C201.634 152.343 201.285 152.398 200.938 152.368L200.949 152.378C200.594 152.349 200.237 152.395 199.902 152.514C199.568 152.633 199.264 152.821 199.012 153.066C198.761 153.311 198.567 153.606 198.444 153.931C198.322 154.257 198.274 154.604 198.304 154.949L198.294 154.939C198.333 155.351 198.241 155.766 198.03 156.126C197.819 156.486 197.498 156.773 197.113 156.95C196.727 157.126 196.295 157.183 195.875 157.112C195.455 157.04 195.067 156.845 194.766 156.552C194.464 156.259 194.263 155.883 194.189 155.475C194.116 155.067 194.173 154.646 194.355 154.271C194.536 153.896 194.831 153.584 195.202 153.379C195.572 153.173 195.998 153.083 196.422 153.122L196.412 153.112C196.767 153.141 197.124 153.094 197.459 152.975C197.793 152.857 198.097 152.668 198.349 152.423C198.601 152.178 198.794 151.883 198.917 151.558C199.039 151.233 199.087 150.886 199.057 150.541L199.067 150.551C199.038 150.258 199.076 149.962 199.178 149.685Z" fill="#32B3F6"/>
</g>
<defs>
<clipPath id="bgblur_0_1_875_clip_path" transform="translate(-173.5 -74.5)"><rect x="179.75" y="80.75" width="31.5019" height="137.5" rx="8.25095"/>
</clipPath><radialGradient id="paint0_radial_1_875" cx="0" cy="0" r="1" gradientUnits="userSpaceOnUse" gradientTransform="translate(200 150) rotate(90) scale(150 200)">
<stop stop-color="#EFF6FF"/>
<stop offset="1" stop-color="white"/>
</radialGradient>
</defs>
</svg>
