<svg width="116" height="25" viewBox="0 0 116 25" fill="none" xmlns="http://www.w3.org/2000/svg">
<g clip-path="url(#clip0_1447_98)">
<path d="M-0.00292969 0.39797H5.15307V24.304H-0.00292969V0.39797ZM8.85307 0.39797H14.0171V3.55797C15.8531 1.16797 18.3211 -0.00402832 21.4191 -0.00402832C24.1531 -0.00402832 26.4891 0.897972 28.4191 2.65197C30.3921 4.41397 31.3791 6.71497 31.3791 9.64797V24.304H26.2191V11.047C26.2191 7.21097 23.6611 4.81997 20.4311 4.81997C18.5481 4.81997 17.0211 5.49597 15.8101 6.89397C14.5991 8.24597 14.0171 9.96097 14.0171 11.992V24.304H8.85307V0.39797ZM37.0441 21.011C34.6651 18.578 33.4971 15.691 33.4971 12.308C33.4971 8.92497 34.6651 5.99197 37.0441 3.60097C39.4231 1.21097 42.3371 -0.00402832 45.7041 -0.00402832C49.0671 -0.00402832 51.9421 1.21097 54.3171 3.64797C56.6971 6.03797 57.9111 8.92497 57.9111 12.308C57.9111 15.691 56.6961 18.625 54.3171 21.058C51.9421 23.448 49.0671 24.668 45.7041 24.668C42.3371 24.668 39.4231 23.448 37.0441 21.011ZM45.7041 19.886C47.7671 19.886 49.5171 19.164 50.9541 17.676C52.3921 16.187 53.1061 14.382 53.1061 12.308C53.1061 10.23 52.3921 8.47597 50.9541 6.98397C49.5171 5.49997 47.7671 4.72997 45.7041 4.72997C43.6421 4.72997 41.8881 5.49597 40.4541 6.98397C39.0171 8.47597 38.3021 10.234 38.3021 12.308C38.3021 14.383 39.0171 16.188 40.4541 17.675C41.8881 19.164 43.6421 19.886 45.7041 19.886ZM57.2401 0.39797H62.7591L69.3091 21.328L75.8601 0.39797H81.3801L73.5701 24.304H65.0901L57.2401 0.39797ZM83.4461 0.39797H88.6061V24.304H83.4461V0.39797ZM94.3491 21.011C92.0591 18.578 90.8951 15.691 90.8951 12.308C90.8951 8.87797 92.0601 5.99197 94.3491 3.60097C96.6811 1.21097 99.4621 -0.00402832 102.739 -0.00402832C105.969 -0.00402832 108.529 1.21097 110.411 3.60097V0.39797H115.571V24.304H110.411V21.101C108.481 23.496 105.927 24.668 102.739 24.668C99.4621 24.668 96.6811 23.448 94.3491 21.011ZM108.529 17.675C110.009 16.187 110.727 14.383 110.727 12.308C110.727 10.23 110.009 8.42897 108.528 6.94097C107.048 5.45297 105.298 4.68297 103.231 4.68297C101.122 4.68297 99.3721 5.45297 97.8951 6.94097C96.4581 8.42897 95.7391 10.234 95.7391 12.308C95.7391 14.425 96.4581 16.234 97.8951 17.718C99.3291 19.211 101.122 19.929 103.231 19.929C105.298 19.929 107.049 19.164 108.529 17.675Z" fill="white"/>
</g>
<defs>
<clipPath id="clip0_1447_98">
<rect width="115.57" height="24.67" fill="white"/>
</clipPath>
</defs>
</svg>
