<svg width="105" height="28" viewBox="0 0 105 28" fill="none" xmlns="http://www.w3.org/2000/svg">
<g clip-path="url(#clip0_1446_69)">
<path fill-rule="evenodd" clip-rule="evenodd" d="M27.5668 27.5668H0V0H27.5668V27.5668ZM6.31726 4.90393C7.00332 5.3012 7.46557 6.0417 7.4657 6.89148V20.6753C7.46551 21.525 7.0032 22.2656 6.31726 22.6629V22.9722H11.8304V22.6629C11.1446 22.2656 10.6822 21.5249 10.682 20.6753V9.34133C10.6823 7.38594 12.2677 5.80047 14.223 5.8003H14.6306C16.5096 5.80045 18.0329 7.32393 18.0332 9.2029V11.199C18.033 13.2288 16.387 14.8741 14.3572 14.8741C13.6562 14.874 13.0013 14.6772 12.444 14.3367L11.0734 15.2458C12.0496 15.7769 13.1676 16.0806 14.3572 16.0807H15.5065C18.6781 16.0805 21.2495 13.5093 21.2496 10.3377C21.2495 7.16596 18.6781 4.59478 15.5065 4.59461H6.31726V4.90393Z" fill="#F6F5FF"/>
<path fill-rule="evenodd" clip-rule="evenodd" d="M52.3624 10.1283C52.9964 10.1283 53.5615 10.2663 54.0577 10.5419C54.5677 10.8037 54.9604 11.1763 55.2361 11.6587C55.5117 12.1411 55.6496 12.6995 55.6496 13.3335V19.3286L57.0143 19.7217L53.21 21.2102V18.8116C52.5347 19.5559 51.8526 20.1421 51.1636 20.5693C50.4743 20.9966 49.7781 21.2102 49.0751 21.2102C48.3584 21.2102 47.7723 21.0101 47.3174 20.6104C46.8629 20.1969 46.6356 19.6661 46.6356 19.0185C46.6357 18.4534 46.9048 17.9294 47.4422 17.4471C47.9797 16.9509 48.6275 16.5101 49.3853 16.1242C50.1572 15.7384 51.1428 15.2901 52.3419 14.7801L53.21 14.4084V13.4155C53.21 12.6713 53.0032 12.0648 52.5897 11.5963C52.1762 11.114 51.6455 10.8726 50.9978 10.8726C50.5155 10.8726 50.0881 10.9971 49.7161 11.2451C49.4817 11.3967 49.3093 11.6104 49.199 11.886C49.0889 12.1616 48.9921 12.5268 48.9094 12.9814C48.8267 13.3948 48.751 13.7187 48.6821 13.953C48.6132 14.1872 48.4895 14.3874 48.3104 14.5528C48.145 14.7045 47.9171 14.7801 47.6276 14.7801C47.3108 14.7801 47.0558 14.6766 46.8629 14.47C46.67 14.2495 46.5732 13.9736 46.5732 13.6428C46.5734 13.0917 46.9324 12.5473 47.6491 12.0099C48.3657 11.4586 49.1925 11.0103 50.1296 10.6658C51.0668 10.3074 51.8111 10.1283 52.3624 10.1283ZM53.21 14.7597C52.3279 15.1318 51.5904 15.4833 50.9978 15.814C50.4053 16.131 49.9299 16.4962 49.5716 16.9095C49.227 17.3092 49.0547 17.7575 49.0547 18.2536C49.0547 18.736 49.2061 19.1288 49.5092 19.432C49.8124 19.7352 50.2121 19.8873 50.7081 19.8874C51.1353 19.8874 51.5492 19.7562 51.9488 19.4944C52.3623 19.2188 52.7828 18.8327 53.21 18.3366V14.7597Z" fill="#F6F5FF"/>
<path fill-rule="evenodd" clip-rule="evenodd" d="M72.442 10.1283C73.0759 10.1283 73.6412 10.2663 74.1373 10.5419C74.6474 10.8037 75.04 11.1763 75.3157 11.6587C75.5913 12.1411 75.7293 12.6995 75.7293 13.3335V19.3286L77.0939 19.7217L73.2897 21.2102V18.8116C72.6143 19.5559 71.9323 20.1421 71.2432 20.5693C70.554 20.9966 69.8578 21.2102 69.1548 21.2102C68.4382 21.2102 67.8528 21.01 67.398 20.6104C66.9431 20.1968 66.7152 19.6662 66.7152 19.0185C66.7153 18.4534 66.9844 17.9294 67.5219 17.4471C68.0593 16.9509 68.7071 16.5101 69.465 16.1242C70.2368 15.7384 71.2223 15.2901 72.4215 14.7801L73.2897 14.4084V13.4155C73.2896 12.6713 73.0828 12.0648 72.6693 11.5963C72.2558 11.1141 71.7251 10.8726 71.0774 10.8726C70.5951 10.8726 70.1677 10.9971 69.7957 11.2451C69.5614 11.3967 69.389 11.6104 69.2787 11.886C69.1685 12.1615 69.0726 12.5268 68.9899 12.9814C68.9072 13.3948 68.8306 13.7187 68.7618 13.953C68.6928 14.1872 68.5692 14.3874 68.3901 14.5528C68.2246 14.7045 67.9967 14.7801 67.7073 14.7801C67.3905 14.7801 67.1354 14.6766 66.9425 14.47C66.7497 14.2495 66.6528 13.9735 66.6528 13.6428C66.653 13.0917 67.0121 12.5473 67.7286 12.0099C68.4454 11.4586 69.2721 11.0103 70.2093 10.6658C71.1464 10.3074 71.8907 10.1284 72.442 10.1283ZM73.2897 14.7597C72.4076 15.1317 71.67 15.4833 71.0774 15.814C70.485 16.131 70.0095 16.4962 69.6513 16.9095C69.3067 17.3092 69.1343 17.7575 69.1342 18.2536C69.1342 18.7359 69.2858 19.1288 69.5889 19.432C69.8921 19.7353 70.2924 19.8874 70.7886 19.8874C71.2156 19.8873 71.629 19.7561 72.0285 19.4944C72.4419 19.2188 72.8625 18.8326 73.2897 18.3366V14.7597Z" fill="#F6F5FF"/>
<path fill-rule="evenodd" clip-rule="evenodd" d="M80.8973 11.9065C81.683 11.3827 82.386 10.9555 83.0063 10.6248C83.6263 10.294 84.1706 10.1284 84.6392 10.1283C85.5073 10.1283 86.2795 10.3488 86.9549 10.7897C87.6304 11.2307 88.1545 11.8513 88.5264 12.6507C88.8982 13.4364 89.0846 14.3395 89.0846 15.3595C89.0846 16.5033 88.8571 17.5161 88.4021 18.3981C87.9611 19.2802 87.3204 19.9698 86.4797 20.4659C85.6527 20.9621 84.6874 21.2102 83.5847 21.2102C82.9646 21.2102 82.3303 21.1135 81.6826 20.9205C81.035 20.7276 80.4629 20.4592 79.9668 20.1148L78.4373 21.2102V6.24121L76.9897 5.64221L80.8973 3.92554V11.9065ZM83.2335 11.328C82.944 11.328 82.6059 11.4104 82.2201 11.5758C81.848 11.7274 81.4071 11.9479 80.8973 12.2372V17.9854C80.9938 18.8673 81.2975 19.5705 81.8073 20.0942C82.3173 20.6177 82.9171 20.8795 83.6061 20.8795C84.171 20.8794 84.6673 20.6793 85.0946 20.2797C85.5218 19.8662 85.8524 19.3009 86.0867 18.5844C86.3347 17.8539 86.4592 17.0203 86.4592 16.0833C86.4592 15.1597 86.3213 14.3391 86.0456 13.6223C85.77 12.8919 85.384 12.3267 84.8878 11.927C84.3916 11.5272 83.8399 11.328 83.2335 11.328Z" fill="#F6F5FF"/>
<path fill-rule="evenodd" clip-rule="evenodd" d="M100.555 10.1283C101.354 10.1283 102.071 10.3008 102.705 10.6452C103.338 10.976 103.828 11.4446 104.173 12.0509C104.517 12.6574 104.69 13.3469 104.69 14.1187V14.2845H97.9914C97.9914 14.3947 97.9853 14.5051 97.9713 14.6152V14.946C97.9713 15.828 98.1156 16.6134 98.4052 17.3026C98.708 17.978 99.1359 18.5086 99.6871 18.8946C100.238 19.2804 100.872 19.4739 101.589 19.4739C102.429 19.4738 103.133 19.2325 103.698 18.7501C104.276 18.2539 104.71 17.5298 105 16.5789C104.849 17.5437 104.566 18.3779 104.152 19.0808C103.752 19.7699 103.235 20.3006 102.602 20.6727C101.981 21.031 101.278 21.2102 100.493 21.2102C99.5139 21.2102 98.6459 20.9898 97.8881 20.5488C97.1435 20.1078 96.5581 19.4872 96.1302 18.6877C95.7032 17.8746 95.4897 16.9511 95.4897 15.9175C95.4897 14.8011 95.7032 13.8087 96.1302 12.9405C96.5712 12.0584 97.1776 11.3688 97.9494 10.8726C98.722 10.3764 99.59 10.1283 100.555 10.1283ZM100.555 10.4803C99.9207 10.4803 99.3695 10.7973 98.9005 11.4314C98.4464 12.0653 98.1568 12.9058 98.0325 13.953H101.672C101.92 13.9529 102.099 13.884 102.21 13.7462C102.319 13.5946 102.374 13.3808 102.374 13.1053C102.374 12.6368 102.298 12.2027 102.147 11.8031C101.995 11.4034 101.775 11.0863 101.485 10.852C101.21 10.6039 100.9 10.4803 100.555 10.4803Z" fill="#F6F5FF"/>
<path fill-rule="evenodd" clip-rule="evenodd" d="M40.1533 5.66272C41.3111 5.66274 42.3589 5.84857 43.2961 6.22071C44.2333 6.57906 44.9634 7.08284 45.4871 7.73059C46.0246 8.37838 46.2937 9.09492 46.2937 9.8805C46.2937 10.7075 46.0246 11.4585 45.4871 12.1338C44.9634 12.809 44.2333 13.3398 43.2961 13.7257C42.3589 14.0978 41.3111 14.2845 40.1533 14.2845H37.3617V19.8046L39.2023 20.9624H33.2268L34.7777 19.8046V6.90344L33.2268 5.66272H40.1533ZM37.3617 13.8709H39.8842C40.6009 13.8709 41.235 13.7052 41.7863 13.3746C42.3514 13.0299 42.7928 12.554 43.1099 11.9475C43.4405 11.3411 43.6063 10.6522 43.6063 9.8805C43.6063 9.14996 43.4407 8.50164 43.1099 7.93652C42.7929 7.35773 42.3513 6.91023 41.7863 6.59326C41.235 6.2625 40.6009 6.0968 39.8842 6.0968H37.3617V13.8709Z" fill="#F6F5FF"/>
<path d="M64.4149 10.1283C64.9386 10.1283 65.3591 10.2662 65.6762 10.5419C65.9931 10.8174 66.1512 11.1758 66.1513 11.6168C66.1513 12.0027 66.0411 12.3131 65.8205 12.5473C65.6139 12.7816 65.3454 12.8985 65.0147 12.8985C64.7116 12.8985 64.4702 12.8296 64.291 12.6918C64.1118 12.5401 63.9184 12.3266 63.7117 12.0509C63.5601 11.8443 63.4221 11.6927 63.2981 11.5963C63.1878 11.4999 63.0498 11.4519 62.8846 11.4519C62.6228 11.452 62.361 11.5622 62.0992 11.7826C61.8374 12.0031 61.5758 12.2857 61.3139 12.6303L61.2926 12.6712V20.0524L62.7811 20.9624H57.5508L58.8325 20.0524V12.4234L57.385 11.8441L61.2926 10.1283V12.1543C61.7474 11.5617 62.237 11.0798 62.7607 10.7076C63.2982 10.3217 63.8498 10.1283 64.4149 10.1283Z" fill="#F6F5FF"/>
<path d="M93.5402 20.0524L94.822 20.9624H89.7987L91.0595 20.0524V6.22071L89.6333 5.64221L93.5402 3.92554V20.0524Z" fill="#F6F5FF"/>
</g>
<defs>
<clipPath id="clip0_1446_69">
<rect width="105" height="28" fill="white"/>
</clipPath>
</defs>
</svg>
