<svg width="87" height="28" viewBox="0 0 87 28" fill="none" xmlns="http://www.w3.org/2000/svg">
<mask id="mask0_1446_15" style="mask-type:luminance" maskUnits="userSpaceOnUse" x="0" y="0" width="87" height="28">
<path d="M87 0H0V28H87V0Z" fill="white"/>
</mask>
<g mask="url(#mask0_1446_15)">
<path d="M60.5918 4.28155C59.8955 4.28155 58.8861 4.63685 58.2623 5.14773V0H55.5498V15.7881H58.2623V9.30999C58.2623 8.02111 59.3054 6.97601 60.5918 6.97601C61.8782 6.97601 62.9212 8.02111 62.9212 9.30999V15.7881H65.613V9.30999C65.613 6.53256 63.3664 4.27897 60.5918 4.27897V4.28155Z" fill="#52525b"/>
<path d="M11.7535 0H0.00012207V2.71779H4.52185V15.7881H7.23437V2.71779H11.7535V0Z" fill="#52525b"/>
<path d="M50.9811 10.2179V7.2278H53.8282V4.51001H50.9811V0.456665H48.2687V4.51001H46.374V7.2278H48.2687V12.6115C48.2687 14.3646 49.687 15.7883 51.4393 15.7883H53.8282V13.0913H50.9811V10.2231V10.2179Z" fill="#52525b"/>
<path d="M85.3327 4.50989C84.1499 4.50989 83.0654 4.91963 82.2061 5.60167L81.9629 4.50989H80.2908V15.7882H82.9826V9.33603C82.9826 8.16127 83.9351 7.20693 85.1076 7.20693H86.9971V4.50989H85.3302H85.3327Z" fill="#52525b"/>
<path d="M40.03 4.24011C36.7869 4.24011 34.1598 6.87491 34.1598 10.1217C34.1598 13.3686 36.7895 16.0034 40.03 16.0034C42.5199 16.0034 44.6475 14.45 45.5017 12.2586H42.6261C42.0101 13.0081 41.0757 13.4879 40.03 13.4879C38.5133 13.4879 37.2321 12.4817 36.8128 11.0994H45.6647C45.7579 11.089 45.8329 11.0164 45.846 10.9231C45.8822 10.6612 45.9003 10.3941 45.9003 10.1217C45.9003 6.87233 43.2732 4.24011 40.03 4.24011ZM36.9164 8.85362C37.4158 7.62179 38.622 6.75303 40.03 6.75303C41.438 6.75303 42.6443 7.62179 43.1437 8.85362H36.9164Z" fill="#52525b"/>
<path d="M72.9045 4.23996C69.6639 4.23996 67.0369 6.87217 67.0369 10.119C67.0369 13.3658 69.6639 15.9981 72.9045 15.9981C75.3918 15.9981 77.5193 14.4472 78.3709 12.2559H75.4979C74.8819 13.0053 73.9476 13.4826 72.9045 13.4826C71.3877 13.4826 70.1066 12.4763 69.6898 11.0941H78.5366C78.6298 11.0837 78.7048 11.0111 78.7152 10.9178C78.7514 10.6558 78.7695 10.3887 78.7695 10.1164C78.7695 6.86958 76.1424 4.23737 72.9019 4.23737L72.9045 4.23996ZM69.7934 8.85087C70.2929 7.62164 71.4964 6.75288 72.9045 6.75288C74.3125 6.75288 75.516 7.62164 76.0155 8.85087H69.7934Z" fill="#52525b"/>
<path d="M15.2525 6.75288C16.6475 6.75288 17.8433 7.60607 18.3506 8.81975H20.9777C20.3876 6.19531 18.0478 4.23737 15.2525 4.23737C12.0093 4.23737 9.3822 6.87217 9.3822 10.1216C9.3822 13.371 12.0093 16.0032 15.2525 16.0032C18.0504 16.0032 20.3876 14.0426 20.9777 11.4208H18.3532C17.8459 12.6345 16.6475 13.4877 15.2525 13.4877C13.3966 13.4877 11.8902 11.981 11.8902 10.1216C11.8902 8.26219 13.3966 6.75288 15.2525 6.75288Z" fill="#52525b"/>
<path d="M25.9239 15.8577V13.2255C25.1111 12.8858 24.4614 12.2349 24.1198 11.4205H21.4979C21.9922 13.6249 23.7238 15.3598 25.9239 15.8577Z" fill="#52525b"/>
<path d="M28.5203 16.3798V19.0095C29.7316 19.5203 30.5831 20.721 30.5831 22.1188C30.5831 23.9783 29.0793 25.485 27.2235 25.485C25.3677 25.485 23.8613 23.9783 23.8613 22.1188C23.8613 20.721 24.7129 19.5203 25.9242 19.012V16.3798C23.3075 16.9711 21.3533 19.318 21.3533 22.1188C21.3533 25.3657 23.9804 28.0005 27.2235 28.0005C30.4667 28.0005 33.0938 25.3657 33.0938 22.1188C33.0938 19.3154 31.1396 16.9711 28.5203 16.3798Z" fill="#52525b"/>
<path d="M32.7214 5.91524V4.23996H27.3352C27.2963 4.23996 27.26 4.23737 27.2212 4.23737C24.4259 4.23737 22.0861 6.19531 21.496 8.81975H24.1205C24.6278 7.60607 25.8261 6.75288 27.2212 6.75288C29.077 6.75288 30.5808 8.26219 30.5808 10.1216C30.5808 11.5194 29.7294 12.7201 28.518 13.2284V15.858C31.1373 15.2667 33.0915 12.9224 33.0915 10.1216C33.0915 8.60191 32.5169 7.21708 31.5722 6.17198L32.7188 5.91524H32.7214Z" fill="#52525b"/>
</g>
</svg>
